<svg xmlns="http://www.w3.org/2000/svg" viewBox="0 0 40 38.71"><defs><style>.cls-1{fill:#f44336;}.cls-2{fill:#231f20;}.cls-3{fill:#b71c1c;}.cls-4{fill:#fff;}.cls-5{fill:#4e342e;}.cls-6{fill:none;}</style></defs><title>homeHover</title><g id="Layer_2" data-name="Layer 2"><g id="Layer_1-2" data-name="Layer 1"><path class="cls-1" d="M33.8,7.7,20,2,6.2,7.7,2,17H3V36H37V17h1Z"/><path class="cls-2" d="M11,23H29V35H11Z"/><path class="cls-3" d="M35,6,20,0V2L33.8,7.7Z"/><path class="cls-3" d="M38,18h2L35,6,33.8,7.7ZM5,6,20,0V2L6.2,7.7Z"/><rect class="cls-4" x="15.84" y="7.84" width="8.31" height="8.31"/><path class="cls-3" d="M2,18H0L5,6,6.2,7.7Z"/><path class="cls-5" d="M18,10h4v4H18Z"/><polygon class="cls-6" points="10.39 23.75 10.39 33.41 4.31 22.82 10.39 23.75"/><polygon class="cls-6" points="3.27 35.34 3.27 25.57 8.75 34.5 3.27 35.34"/><polygon class="cls-4" points="8.75 34.5 9.71 36.06 11.06 34.56 10.39 33.41 10.39 23.75 4.31 22.82 3.02 20.58 2 20.37 2 19.85 12 22 12 36 3.27 37.88 3.27 35.34 8.75 34.5"/><polygon class="cls-4" points="2 23.51 3.27 25.57 3.27 35.34 3.27 37.88 2 38.15 2 23.51"/><polygon class="cls-4" points="4.31 22.82 10.39 33.41 11.06 34.56 9.71 36.06 8.75 34.5 3.27 25.57 2 23.51 2 20.37 3.02 20.58 4.31 22.82"/><polygon class="cls-6" points="31.93 34.6 37.47 35.68 37.47 25.39 31.93 34.6"/><polygon class="cls-6" points="30.33 23.7 30.33 33.45 36.39 22.53 30.33 23.7"/><polygon class="cls-4" points="28.8 22 28.8 36 37.47 38.35 37.47 35.68 31.93 34.6 30.99 36.16 29.7 34.59 30.33 33.45 30.33 23.7 36.39 22.53 37.72 20.12 38.8 19.85 38.8 19.29 28.8 22"/><polygon class="cls-4" points="37.47 35.68 37.47 38.35 38.8 38.71 38.8 23.18 37.47 25.39 37.47 35.68"/><polygon class="cls-4" points="36.39 22.53 30.33 33.45 29.7 34.59 30.99 36.16 31.93 34.6 37.47 25.39 38.8 23.18 38.8 19.85 37.72 20.12 36.39 22.53"/></g></g></svg>