<svg xmlns="http://www.w3.org/2000/svg" viewBox="0 0 40 38.71"><defs><style>.cls-1{fill:#f44336;}.cls-2{fill:#231f20;}.cls-3{fill:#b71c1c;}.cls-4{fill:#ff8a80;}.cls-5{fill:#fff;}.cls-6{fill:#4e342e;}.cls-7{opacity:0;}.cls-8{fill:none;}</style></defs><title>home_1</title><g id="Layer_2" data-name="Layer 2"><g id="Layer_1-2" data-name="Layer 1"><path class="cls-1" d="M33.8,7.7,20,2,6.2,7.7,2,17H3V36H37V17h1Z"/><path class="cls-2" d="M11,23H29V35H11Z"/><path class="cls-3" d="M35,6,20,0V2L33.8,7.7Z"/><path class="cls-3" d="M38,18h2L35,6,33.8,7.7ZM5,6,20,0V2L6.2,7.7Z"/><path class="cls-3" d="M2,18H0L5,6,6.2,7.7Z"/><path class="cls-4" d="M11,23H29V35H11Z"/><path class="cls-5" d="M16,8h8v8H16ZM28,24V34H12V24H28m2-2H10V36H30Z"/><path class="cls-6" d="M18,10h4v4H18Z"/><g class="cls-7"><polygon class="cls-8" points="10.39 23.75 10.39 33.41 4.31 22.82 10.39 23.75"/><polygon class="cls-8" points="3.27 35.34 3.27 25.57 8.75 34.5 3.27 35.34"/><polygon class="cls-5" points="8.75 34.5 9.71 36.06 11.06 34.56 10.39 33.41 10.39 23.75 4.31 22.82 3.02 20.58 2 20.37 2 19.85 12 22 12 36 3.27 37.88 3.27 35.34 8.75 34.5"/><polygon class="cls-5" points="2 23.51 3.27 25.57 3.27 35.34 3.27 37.88 2 38.15 2 23.51"/><polygon class="cls-5" points="4.31 22.82 10.39 33.41 11.06 34.56 9.71 36.06 8.75 34.5 3.27 25.57 2 23.51 2 20.37 3.02 20.58 4.31 22.82"/></g><g class="cls-7"><polygon class="cls-8" points="31.93 34.6 37.48 35.68 37.48 25.39 31.93 34.6"/><polygon class="cls-8" points="30.33 23.7 30.33 33.45 36.4 22.53 30.33 23.7"/><polygon class="cls-5" points="28.8 22 28.8 36 37.48 38.35 37.48 35.68 31.93 34.6 30.99 36.16 29.7 34.59 30.33 33.45 30.33 23.7 36.4 22.53 37.74 20.12 38.82 19.85 38.82 19.29 28.8 22"/><polygon class="cls-5" points="37.48 35.68 37.48 38.35 38.82 38.71 38.82 23.18 37.48 25.39 37.48 35.68"/><polygon class="cls-5" points="36.4 22.53 30.33 33.45 29.7 34.59 30.99 36.16 31.93 34.6 37.48 25.39 38.82 23.18 38.82 19.85 37.74 20.12 36.4 22.53"/></g><path class="cls-5" d="M19,23h2V36H19Z"/><path class="cls-5" d="M27.2,35.6,20,24.8,12.8,35.6l-1.6-1.2,8-12h1.6l8,12Z"/></g></g></svg>