<svg xmlns="http://www.w3.org/2000/svg" viewBox="0 0 23.54 18.35"><defs><style>.cls-1{fill:none;}.cls-2{fill:#8bc34a;}.cls-3{fill:#689f38;}</style></defs><title>PlantBG</title><g id="Layer_2" data-name="Layer 2"><g id="Layer_1-2" data-name="Layer 1"><path class="cls-1" d="M22.35,18.35h1.19V17.13C23.17,17.54,22.78,18,22.35,18.35Z"/><path class="cls-2" d="M9.12,8.16a2.26,2.26,0,0,1,0,.26A2.26,2.26,0,0,0,9.12,8.16Z"/><path class="cls-2" d="M9,10.14v0Z"/><path class="cls-2" d="M3.36,2.1C3.52.77,3.64,0,3.64,0A11.9,11.9,0,0,0,.06,9.54c.46,4.37,3.09,5.76,4.37,6.18A29.54,29.54,0,0,1,3.36,2.1Z"/><path class="cls-2" d="M5.71,15.45s0,0,0,0a9.55,9.55,0,0,0,1-.93A8.84,8.84,0,0,1,5.71,15.45Z"/><path class="cls-2" d="M11.45,15.74c3.87-3.11,8.79-4.07,12.09-4.35V9.23a14.41,14.41,0,0,0-8.36-1.14c-8.43,1.57-7.35,8.3-6.85,10.26h.32A16.63,16.63,0,0,1,11.45,15.74Z"/><path class="cls-2" d="M9.14,9.11a1.62,1.62,0,0,0,0,.22A1.62,1.62,0,0,1,9.14,9.11Z"/><path class="cls-3" d="M5.72,15.48s0,0,0,0a8.84,8.84,0,0,0,1-.9A8.21,8.21,0,0,0,9,10.16v0q.06-.39.09-.81a1.62,1.62,0,0,1,0-.22c0-.22,0-.45,0-.69a2.26,2.26,0,0,0,0-.26c0-.31-.06-.63-.12-1C8.25,3.17,3.64,0,3.64,0s-.12.77-.28,2.1A29.54,29.54,0,0,0,4.43,15.72a18.47,18.47,0,0,0,1.16,2.63H7a.5.5,0,0,0,0-.13A16.29,16.29,0,0,1,5.72,15.48Z"/><path class="cls-3" d="M23.54,17.13V11.39c-3.3.28-8.22,1.24-12.09,4.35a16.63,16.63,0,0,0-2.8,2.61h13.7C22.78,18,23.17,17.54,23.54,17.13Z"/></g></g></svg>