<svg xmlns="http://www.w3.org/2000/svg" viewBox="0 0 40 40"><defs><style>.cls-1{fill:#dcedc8;}.cls-2{fill:#cb9866;}.cls-3{fill:#602b1e;}.cls-4{fill:#558b2f;}.cls-5{fill:#7cb342;}.cls-6{fill:#663601;}</style></defs><title>HalfStar</title><g id="Layer_2" data-name="Layer 2"><g id="Layer_1-2" data-name="Layer 1"><path class="cls-1" d="M20,0a20,20,0,0,0,0,40c.35,0,.7,0,1.05,0C21.74,26.35,17.08,13.65,20,0Z"/><path class="cls-2" d="M40,20.05a20.06,20.06,0,0,0-20-20C17.08,13.7,21.74,26.4,21.05,40A20,20,0,0,0,40,20.05Z"/><path class="cls-3" d="M19.05,9.07c-.09,7.06,1.12,14,1.74,21a7.6,7.6,0,0,0,5-2.17C31.5,23,28.3,11.7,31,8A50,50,0,0,0,19.05,9.07Z"/><path class="cls-4" d="M19.05,9.07c-3.1.76-6.07,2-8,4.23-3.5,4-2.2,10.4,3.5,11.1,1.59,3.89,3.81,5.62,6.19,5.67C20.17,23,19,16.13,19.05,9.07Z"/><path class="cls-5" d="M14.5,24.4l.08.23-.08-.23a4.8,4.8,0,0,1-1.7-.5c-1.5,3-2.1,5.8-1.8,7.7a1.6,1.6,0,0,0,1.5,1.3h.2a1.41,1.41,0,0,0,1.2-1.7,15.33,15.33,0,0,1,1.2-5.3C16.65,28.76,18.65,30,20.78,30c-.35-4-.9-7.94-1.29-11.91C18,19.88,16.29,22,14.5,24.4Z"/><path class="cls-6" d="M19.49,18.07c.39,4,.94,7.92,1.29,11.91A7.86,7.86,0,0,0,25.6,27.9C31.5,23,28.3,11.7,31,8,28.68,9.16,24.79,11.9,19.49,18.07Z"/></g></g></svg>