<svg xmlns="http://www.w3.org/2000/svg" viewBox="0 0 40 40"><defs><style>.cls-1{fill:#dcedc8;}.cls-2{fill:#558b2f;}.cls-3{fill:#7cb342;}</style></defs><title>star</title><g id="Layer_2" data-name="Layer 2"><g id="Layer_1-2" data-name="Layer 1"><path class="cls-1" d="M0,20A20.06,20.06,0,0,1,20,0h0A20.06,20.06,0,0,1,40,20h0A20.06,20.06,0,0,1,20,40h0A20.06,20.06,0,0,1,0,20Z"/><path class="cls-2" d="M11.1,13.3C16,7.6,28.3,8,31,8c-2.7,3.7.5,15-5.2,19.9-4,3.5-8.5,3.1-11.2-3.5C8.9,23.7,7.6,17.3,11.1,13.3Z"/><path class="cls-3" d="M31,8c-3,1.5-8.6,5.6-16.5,16.4h0a4.8,4.8,0,0,1-1.7-.5c-1.5,3-2.1,5.8-1.8,7.7a1.6,1.6,0,0,0,1.5,1.3h.2a1.41,1.41,0,0,0,1.2-1.7,15.33,15.33,0,0,1,1.2-5.3c2.7,5,6.8,5.1,10.5,2C31.5,23,28.3,11.7,31,8Z"/></g></g></svg>