<svg xmlns="http://www.w3.org/2000/svg" xmlns:xlink="http://www.w3.org/1999/xlink" width="1000" height="1000" viewBox="0 0 1000 1000">
  <defs>
    <style>
      .cls-1 {
        fill: #f9a101;
      }

      .cls-1, .cls-2, .cls-3, .cls-4, .cls-5, .cls-6 {
        fill-rule: evenodd;
      }

      .cls-2 {
        fill: #90c62a;
      }

      .cls-3 {
        fill: #8fc628;
      }

      .cls-4 {
        fill: #91c72c;
      }

      .cls-5 {
        fill: #fe9903;
      }

      .cls-6 {
        fill: #ffa303;
        filter: url(#filter);
      }
    </style>
    <filter id="filter" x="570.656" y="619.875" width="43.875" height="23.25" filterUnits="userSpaceOnUse">
      <feGaussianBlur result="blur" stdDeviation="10" in="SourceAlpha"/>
      <feFlood result="flood" flood-color="#90c62b" flood-opacity="0.51"/>
      <feComposite result="composite-2" operator="out" in2="blur"/>
      <feComposite result="composite" operator="in" in2="SourceAlpha"/>
      <feBlend result="blend" mode="screen" in2="SourceGraphic"/>
    </filter>
  </defs>
  <path class="cls-1" d="M235,485l-12,5-13,6-12,9-9,10-7,9-9,17-5,11-2,12-2,11v11l2,14,4,11,5,14,10,13,9,11,13,11,11,6,13,5,16,4h21l14-1,15-4h-6l-10,1-15-1-5-1-11-3-12-5-12-7-12-10-6-6-10-13-5-7-6-14-2-7-2-16V564l1-6,3-16,5-11,4-7,6-10,8-8,8-8,9-7,6-3Z"/>
  <path class="cls-2" d="M224,449l-6-23-4-18-3-15-1-6-2-12-1-15V337l2-15,1-10,1-5,4-13,6-12,4-9,8-11,8-7,7-7,10-6,12-5,14-6,13-6,18-8,11-7,20-10,11-5,13-6,13-7,6-4v24l-2,9-2,10v19l-2,12-3,17-4,16-4,17-4,17-4,18-9,24-8,20-8,13-10,14-8,13-14,14-11,7-13,6-12,5-14,1H244l-14-2Z"/>
  <path class="cls-2" d="M203,458l-6-2-5-2H181l-10,1H139l-15-1-17-2-15-3-20-9L56,429,36,410l-9-14L17,378l-6-15-1-5,15,1,19,3,20,4,20,6,19,5,18,10,12,5,11,7,13,10,16,15,18,17,5,7Z"/>
  <path id="V_" data-name="V " class="cls-3" d="M318.706,456.331a44.147,44.147,0,0,0-9.911,5.918,52,52,0,0,0-7.986,7.844,92.044,92.044,0,0,0-5.99,8.128,56.374,56.374,0,0,0-3.85,6.774,34.237,34.237,0,0,0-1.64,3.921,5.6,5.6,0,0,0,.143,4.207q0.855,1.5,3.707.072a10.3,10.3,0,0,0,2.567-2.567q1.712-2.139,3.993-5.063t5.205-6.132a62.109,62.109,0,0,1,6.275-5.989,33.59,33.59,0,0,1,7.13-4.564,16.625,16.625,0,0,1,7.772-1.639q4.419,0,5.847,5.989t0.642,16.114a229.7,229.7,0,0,1-3.28,23.6q-2.5,13.477-5.7,28.664t-6.773,31.231q-3.567,16.042-6.417,31.3t-4.564,28.807a145.239,145.239,0,0,0-1.283,23.886q0.427,10.338,3.351,16.471t9.341,6.56q7.841,0.428,17.683-6.061a118.535,118.535,0,0,0,20.606-17.968,267.5,267.5,0,0,0,21.961-27.1q11.193-15.615,21.676-33.37t19.751-36.649q9.269-18.894,16.186-37.078a290.364,290.364,0,0,0,10.909-34.653,126.346,126.346,0,0,0,3.993-29.376q0-12.9-4.492-21.177t-14.76-9.983q-2.567-.427-3.779.927a7.146,7.146,0,0,0-1.64,3.28,12.435,12.435,0,0,0-.214,3.993,15.391,15.391,0,0,0,.5,2.924,86.937,86.937,0,0,1,4.136,27.095,148.367,148.367,0,0,1-3.066,29.519,205.21,205.21,0,0,1-8.842,30.66q-5.775,15.545-13.048,30.589t-15.758,29.234q-8.486,14.191-17.041,26.667T355.355,634.16q-8.129,10.341-14.831,17.683a125.083,125.083,0,0,1-11.48,11.337q-4.779,3.99-6.631,3.85-2-.144-1.568-6.274a153.151,153.151,0,0,1,2.353-16.471q1.925-10.338,4.991-24.029t6.346-29.02q3.279-15.328,6.417-31.516t5.276-31.445q2.139-15.256,2.852-28.806A120.513,120.513,0,0,0,348.3,475.8q-1.5-10.124-5.775-16.043T330.4,453.978A29.042,29.042,0,0,0,318.706,456.331Z"/>
  <path id="F" class="cls-4" d="M659.309,550.319a116.846,116.846,0,0,0-17.859,5.127,9.238,9.238,0,0,0-4.358,4.7q-0.94,1.71-1.281,25.549v10.083h-0.086Q630,598.258,630,603.64a10.4,10.4,0,0,0,1.2,4.443q2.991,3.675,5.127,3.674,1.283,17.861,2.82,28.626,2.391,14.784,5.3,22.3,2.391,5.982,7.947,5.982a7.21,7.21,0,0,0,3.076-.6q5.383-2.476,5.383-7.69a13.849,13.849,0,0,0-.256-2.222q-2.137-5.127-4.358-17.517-3.162-22.728-3.162-32.043v-0.257q41.016-11.706,44.776-12.646,6.236-2.563,6.237-8.118a23.317,23.317,0,0,0-.512-2.734q-2.651-5.724-7.862-5.725h-0.769q-2.819.6-42.212,11.792h-0.085v-5.042q0-8.971.427-16.662,20.935-5.724,37.171-5.725h1.025a48.206,48.206,0,0,1,5.127.256l6.494,1.2a8.75,8.75,0,0,0,4.1-1.2q4.185-2.9,4.187-7.092a9.1,9.1,0,0,0-1.026-4.273q-2.563-5.724-18.713-5.725h-1.794a145.469,145.469,0,0,0-30.335,3.674h0Z"/>
  <path id="egi_" data-name="egi " class="cls-5" d="M445.712,611.786a26.211,26.211,0,0,0-19.673-8.449q-13.76,0-22.087,9.173-8.088,8.871-8.087,22.751,0,14.243,9.053,22.751,8.809,8.388,23.173,8.388,15.509,0,22.871-7.906a2.794,2.794,0,0,0,.906-1.388q0-1.507-2.988-7.06t-4.254-6.156l-4.586,2.9a22.8,22.8,0,0,1-10.8,2.9,18.083,18.083,0,0,1-7.965-1.69,8.554,8.554,0,0,1-5.13-5.974q14.121-1.088,21.242-1.871,11.827-1.207,12.492-1.328,3.923-.845,3.923-6.94A28.068,28.068,0,0,0,445.712,611.786Zm-15.026,17.38a105.869,105.869,0,0,1-13.88,1.388,1.468,1.468,0,0,1-1.69-1.63,11,11,0,0,1,2.293-6.94,7.617,7.617,0,0,1,6.276-3.2,8.391,8.391,0,0,1,6.337,2.836,9.335,9.335,0,0,1,2.655,6.578q0,0.664-1.991.966h0Zm89.8,12.371q-0.06-4.948-.06-7.423,0-4.164.272-12.431t0.271-12.432a1.494,1.494,0,0,0-1.026-1.569q-0.361-.12-9.836-1.116t-10.44-1q-1.088,0-1.087,4.828,0,2.172-.543,2.172a3.064,3.064,0,0,1-1.327-1.328q-4.83-6.517-13.941-6.517-11.4,0-18.466,7.9-6.759,7.605-6.759,19.131,0,11.466,7.061,19.311a23.922,23.922,0,0,0,18.647,8.146q9.656,0,15.811-5.793v4.043q0,3.924-5.19,6.518a18.921,18.921,0,0,1-8.629,2.172q-7.907,0-17.2-4.586a2.675,2.675,0,0,0-.664-0.241q-0.906,0-1.328,1.689-2.595,10.681-2.595,11.828,0,2.775,11.164,4.828a80.193,80.193,0,0,0,13.82,1.63q17.38,0,24.863-7.665,7.242-7.483,7.242-24.682Q520.543,646.486,520.482,641.537Zm-23.746-1.63a9.444,9.444,0,0,1-7.332,3.259,9.571,9.571,0,0,1-7.272-3.2,10.758,10.758,0,0,1-2.987-7.6,11.21,11.21,0,0,1,2.926-7.694,9.879,9.879,0,0,1,14.665-.061A11.458,11.458,0,0,1,496.736,639.907ZM551.2,584.448a12.41,12.41,0,0,0-8.147-2.836,12.752,12.752,0,0,0-8.267,2.776,10.072,10.072,0,0,0-.121,15.57,13,13,0,0,0,8.388,2.655q11.827,0,11.828-10.5a9.488,9.488,0,0,0-3.681-7.664h0Zm3.44,25.225q0.12-.9.121-1.146a1.186,1.186,0,0,0-1.449-1.207q-1.75,0-5.25.3t-5.25.3q-1.752,0-5.22-.362t-5.16-.362q-1.629,0-1.629,1.207c0,0.2.039,0.624,0.12,1.267a220.408,220.408,0,0,1,1.328,27.277q0,4.226-.181,12.583t-0.181,12.522a6.839,6.839,0,0,0,.121,1.81,2.269,2.269,0,0,0,1.629.785,70.933,70.933,0,0,0,9.294.362,70.226,70.226,0,0,0,9.233-.362,1.488,1.488,0,0,0,1.508-1.509q0-4.345-.181-13.065t-0.181-13.126a246.147,246.147,0,0,1,1.328-27.277h0Z"/>
  <path id="ruits" class="cls-5" d="M741.41,622.144q-0.06-2.9-.06-4.647,0.058-1.508.422-4.948a46.976,46.976,0,0,0,.362-4.948q0-1.449-3.379-1.449a23.261,23.261,0,0,0-11.164,3.168q-5.795,3.169-4.949,3.169-0.784,0-1.086-3.8t-1.388-3.8q-0.3,0-9.837,1.871-6.4.966-9.715,1.327a1.184,1.184,0,0,0-.906,1.207,4.28,4.28,0,0,0,.121.905q2.593,9.174,2.6,23.355,0,4.829-.06,14.453t-0.061,14.453a1.908,1.908,0,0,0,1.992,1.992q3.439,0.361,9.172.362,5.974,0,8.871-.242,1.992-.18,1.992-1.629,0-1.689-.241-5.16t-0.242-5.22q0-2.593-.09-7.875t-0.091-7.875q0-4.767,1.811-6.337T732.3,628.9q1.086,0,3.289.151t3.349,0.151q2.593,0,2.595-2.354,0-1.144-.121-4.707h0Zm69.158-14q-0.3-.906-2.112-0.906-2.958,0-8.9-.06t-8.9-.06q-1.809,0-2.172.6a5.012,5.012,0,0,0-.3,2.354q0,28.061-.12,30.294-0.123,2.535-3.229,4.888a9.8,9.8,0,0,1-5.763,2.354q-6.821,0-7.906-6.638a101.1,101.1,0,0,1-.663-14.363,108.979,108.979,0,0,1,1.267-16.656,9.921,9.921,0,0,0,.121-1.267q0-1.569-1.871-1.569-2.777,0-8.449-.061t-8.448-.06q-1.811,0-2.475,2.474-2.234,7.966-2.233,21.725,0,12.733,1.328,19.432,2.956,14.424,18.949,14.423,5.671,0,12.613-4.1t6.1-4.1q0.543,0,.845,2.776,0.18,1.81.362,3.621a1.7,1.7,0,0,0,1.448,1.448,77.561,77.561,0,0,0,9.173.362q7.422,0,9.716-.6a1.921,1.921,0,0,0,1.508-2.052q0-4.284-.3-12.975t-0.3-13.035q0-4.466.422-13.4t0.423-13.4a6.459,6.459,0,0,0-.121-1.448h0Zm30.294-23.9a12.408,12.408,0,0,0-8.147-2.836,12.752,12.752,0,0,0-8.267,2.776,10.071,10.071,0,0,0-.121,15.569,13,13,0,0,0,8.388,2.656q11.827,0,11.829-10.5a9.488,9.488,0,0,0-3.682-7.664h0Zm3.44,25.225q0.12-.9.121-1.146a1.186,1.186,0,0,0-1.449-1.207q-1.75,0-5.25.3t-5.25.3q-1.75,0-5.22-.362t-5.16-.362q-1.629,0-1.629,1.207,0,0.3.121,1.267a220.639,220.639,0,0,1,1.327,27.277q0,4.226-.181,12.583t-0.181,12.522a6.839,6.839,0,0,0,.121,1.81,2.269,2.269,0,0,0,1.629.785,70.944,70.944,0,0,0,9.294.362,70.216,70.216,0,0,0,9.233-.362,1.489,1.489,0,0,0,1.509-1.509q0-4.345-.181-13.065t-0.182-13.126a246.378,246.378,0,0,1,1.328-27.277h0Zm49.424,35.967a19.431,19.431,0,0,0-3.952.694,19.478,19.478,0,0,1-4.315.694q-4.769,0-6.4-2.6-1.147-1.931-1.147-7,0-1.387-.06-4.285v-4.284q0-2.655.9-2.656h4.526q1.208,0,4.044.091t4.043,0.09q1.749,0,1.75-1.267,0-1.447-.06-4.224T893,616.472q0-1.387.3-4.164t0.3-4.164q0-.906-1.328-0.906-2.172,0-6.457.182t-6.4.181q-1.751,0-1.75-2.957,0-2.475.392-7.363t0.393-7.3q0-.9-1.509-1.026-6.216-.723-9.294-1.146a43,43,0,0,1-4.767-.906,21.6,21.6,0,0,0-4.647-.724q-1.327,0-1.327,7,0-.363.241,7.422a44.638,44.638,0,0,1-.241,7.242q-0.181,1.147-2.354,1.207-3.863.121-3.862,1.328,0,1.266.151,3.862T851,618.1q0,0.966-.151,2.957t-0.151,2.957q0,1.629,2.293,1.629a7.8,7.8,0,0,0,.785-0.06h0.784q3.078,0,3.078,2.655,0,3.984-.3,11.979t-0.3,11.979q0,13.338,17.441,13.337a35.191,35.191,0,0,0,17.259-4.285,7.26,7.26,0,0,0,1.991-1.388,4.23,4.23,0,0,0,.363-2.2,49.361,49.361,0,0,1,.452-5.4,49.492,49.492,0,0,0,.453-5.491,1.148,1.148,0,0,0-1.268-1.328h0Zm39.105-37.385q-3.8-6.486-4.767-6.487a30.545,30.545,0,0,0-17.561,5.612q-9.174,6.336-9.173,15.389a15.607,15.607,0,0,0,3.078,9.172q0.24,0.363,5.733,6.458,3.078,3.5,3.078,6.155,0,3.863-5.311,5.552-4.285.784-8.509,1.569a0.667,0.667,0,0,0-.664.664q0,1.447,4.194,8t5.4,6.547a30.366,30.366,0,0,0,11.889-2.776,41.724,41.724,0,0,0,10.44-6.517,12.7,12.7,0,0,0,3.5-5.552,19.719,19.719,0,0,0,1.207-6.517,17.328,17.328,0,0,0-3.078-9.837,60.607,60.607,0,0,0-5.733-6.578q-3.078-3.258-3.077-5.371a5.723,5.723,0,0,1,2.9-5.129,10.738,10.738,0,0,1,5.975-1.569,13.926,13.926,0,0,1,3.379.422,2.9,2.9,0,0,0,.905-1.629Q936.633,614.541,932.831,608.053Z"/>
  <path id="_-" data-name="-" class="cls-6" d="M613.251,619.88q0.361,0-5.613.784a148.247,148.247,0,0,1-16.354,1.449q-2.353,0-7.06-.242t-7.061-.241a1.561,1.561,0,0,0-1.569.965,84.06,84.06,0,0,0-2.9,8.811q-2.052,7.182-2.052,8.75,0,2.958,1.569,2.957a20.846,20.846,0,0,0,3.32-.362q2.654-.421,3.258-0.482a168.146,168.146,0,0,1,17.018-1.147q2.354,0,6.97.06t6.91,0.061a1.24,1.24,0,0,0,1.448-.845q0.906-5.733,1.147-8.75,0.663-2.475,1.388-4.889a19.074,19.074,0,0,0,.845-4.888q0-1.99-1.267-1.991h0Z"/>
</svg>
